# xmcd CD database file
#
# Track frame offsets:
#	150
#	14789
#	29426
#	49076
#	68726
#	83093
#	97460
#	114761
#	132113
#	151839
#	171564
#	188214
#	204863
#	221616
#	237857
#	255783
#	273757
#	291832
#	309909
#	327536
#	345162
#
# Disc length: 4630 seconds
#
# Revision: 0
# Processed by: cddbd v1.5.2PL0 Copyright (c) Steve Scherf et al.
# Submitted via: CDex 1.70beta2
#
DISCID=24121415
DTITLE=Hal Leonard - Volume 41 - Duke Ellington
DYEAR=1900
DGENRE=Jazz
TTITLE0=C-Jam Blues
TTITLE1=C-Jam Blues - split
TTITLE2=Come Sunday
TTITLE3=Come Sunday - split
TTITLE4=Cotton Tail
TTITLE5=Cotton Tail - split
TTITLE6=Do Nothin Till You Hear From Me
TTITLE7=Do Nothin Till You Hear From Me - split
TTITLE8=I Got It Bad And That Aint Good
TTITLE9=I Got It Bad And That Aint Good - split
TTITLE10=I Let A Song Go Out Of My Heart
TTITLE11=I Let A Song Go Out Of My Heart - split
TTITLE12=Im Beginning To See The Light
TTITLE13=Im Beginning To See The Light - split
TTITLE14=Im Just A Lucky So And So
TTITLE15=Im Just A Lucky So And So - split
TTITLE16=Mood Indigo
TTITLE17=Mood Indigo - split
TTITLE18=Solitude
TTITLE19=Solitude - split
TTITLE20=Tuning Notes
EXTD=
EXTT0=
EXTT1=
EXTT2=
EXTT3=
EXTT4=
EXTT5=
EXTT6=
EXTT7=
EXTT8=
EXTT9=
EXTT10=
EXTT11=
EXTT12=
EXTT13=
EXTT14=
EXTT15=
EXTT16=
EXTT17=
EXTT18=
EXTT19=
EXTT20=
PLAYORDER=
